# xmcd CD database file
#
# Track frame offsets:
#	150
#	19188
#	36910
#	56984
#	73728
#	99021
#	118391
#	141184
#	156941
#	174395
#
# Disc length: 2563 seconds
#
# Revision: 0
# Processed by: cddbd v1.5.2PL0 Copyright (c) Steve Scherf et al.
# Submitted via: CDex 1.70beta2
#
DISCID=8d0a010a
DTITLE=Ashley and Franks - Naturecise 2: Rejuvenation
DYEAR=1997
DGENRE=New Age
TTITLE0=Rejuvenation
TTITLE1=Time To Move
TTITLE2=Samba Grove
TTITLE3=Lake WAlk
TTITLE4=Hopeful Skies
TTITLE5=Jungle Passage
TTITLE6=Path Of The Sun
TTITLE7=Camino De Cielo
TTITLE8=Hidden Creek Shuffle
TTITLE9=Sunset Beach
EXTD=YEAR: 1997
EXTT0=
EXTT1=
EXTT2=
EXTT3=
EXTT4=
EXTT5=
EXTT6=
EXTT7=
EXTT8=
EXTT9=
PLAYORDER=
